Coordinates
version=1
nRows=9
nColumns=24
inDegrees=yes

Units are S.I. units (second, meters, Newtons, ...)
Angles are in degrees.

endheader
time	pelvis_tilt	pelvis_list	pelvis_rotation	pelvis_tx	pelvis_ty	pelvis_tz	hip_flexion_r	hip_adduction_r	hip_rotation_r	knee_angle_r	ankle_angle_r	subtalar_angle_r	mtp_angle_r	hip_flexion_l	hip_adduction_l	hip_rotation_l	knee_angle_l	ankle_angle_l	subtalar_angle_l	mtp_angle_l	lumbar_extension	lumbar_bending	lumbar_rotation
      1.16350000	     -1.43045218	     -7.78002486	     -7.07937076	     -0.07670711	      0.99669685	      0.29495339	    -15.05826143	      7.74542360	     -1.93628160	     -4.61227131	      4.38779587	     -3.33951986	      1.04690823	     23.75922766	    -10.77609688	    -11.18070654	      2.26653737	      5.67393078	     -7.09643853	    -13.04093895	    -10.21177236	      8.90536697	      9.80933140
      1.16766667	     -1.23734562	     -7.67450324	     -7.45199036	     -0.07084099	      0.99654309	      0.29547992	    -15.47273913	      7.44267428	     -1.61371996	     -4.88516223	      4.33090977	     -3.34390143	      3.10221684	     23.44720825	    -10.79759550	    -11.48588380	      1.95872372	      5.68491466	     -7.07512378	    -13.28029373	    -10.42593637	      8.61924352	     10.06949790
      1.17183333	     -1.23795361	     -7.64167064	     -7.64727660	     -0.06505976	      0.99595648	      0.29548690	    -15.63827785	      7.26261180	     -1.54663965	     -5.24760178	      4.42114177	     -3.08311158	      3.25058053	     23.44009157	    -10.81246997	    -11.32725520	      1.52597028	      5.63665381	     -7.42866978	    -13.28832850	    -10.41733881	      8.50065962	     10.40583390
      1.17600000	     -1.20348595	     -7.56705060	     -7.91700449	     -0.05919961	      0.99552617	      0.29571210	    -15.84050902	      7.02389289	     -1.35536575	     -5.60271515	      4.42091717	     -2.93636795	      3.35798360	     23.35275384	    -10.82071289	    -11.29693773	      1.07121890	      5.61076477	     -7.71163540	    -13.28848949	    -10.44464694	      8.30303710	     10.54232494
      1.18016667	     -1.11403673	     -7.46853537	     -8.21480946	     -0.05331964	      0.99524466	      0.29597861	    -16.08171796	      6.73939407	     -1.16096140	     -5.98292828	      4.41385281	     -2.76793392	      3.50861836	     23.18434888	    -10.80758523	    -11.33947962	      0.60557895	      5.46474198	     -8.05640108	    -13.28239425	    -10.53075819	      8.05799355	     10.83639225
      1.18433333	     -1.01618047	     -7.36596498	     -8.50380059	     -0.04738723	      0.99501772	      0.29622992	    -16.32064034	      6.44858016	     -0.99282802	     -6.37674321	      4.34613349	     -2.63580106	      3.66599203	     23.00441195	    -10.78482812	    -11.40614891	      0.11091269	      5.28381876	     -8.38980575	    -13.26812212	    -10.60702659	      7.80743653	     11.09799928
      1.18850000	     -0.86973602	     -7.23232121	     -8.77269777	     -0.04139711	      0.99491140	      0.29645759	    -16.61284743	      6.12002619	     -0.82120432	     -6.75128774	      4.28857711	     -2.51836019	      3.94752204	     22.76162889	    -10.71353594	    -11.49925262	     -0.37551061	      4.96039617	     -8.74418294	    -13.22846004	    -10.73353258	      7.51754257	     11.47862773
      1.19266667	     -0.75082738	     -7.10837047	     -9.05731076	     -0.03542771	      0.99480230	      0.29667723	    -16.84077604	      5.79689234	     -0.66206353	     -7.18713762	      4.17776769	     -2.39339043	      4.24876238	     22.54149409	    -10.65646087	    -11.58657278	     -0.87506657	      4.64948165	     -9.12270307	    -13.17322494	    -10.83250215	      7.23570206	     11.72817366
      1.19683333	     -0.61111054	     -6.97071551	     -9.31355629	     -0.02944129	      0.99475866	      0.29680907	    -17.07322652	      5.45584572	     -0.54494381	     -7.63923701	      4.03743122	     -2.26037141	      4.64407512	     22.29625806	    -10.56378424	    -11.64441935	     -1.36646804	      4.27790504	     -9.53627778	    -13.08500336	    -10.95183823	      6.94097821	     12.01962138
